<svg xmlns="http://www.w3.org/2000/svg" viewBox="0 0 16 16" fill="#000000" aria-hidden="true" id="User-Circle--Streamline-Heroicons" height="16" width="16">
  <desc>
    User Circle Streamline Icon: https://streamlinehq.com
  </desc>
  <path fill-rule="evenodd" d="M12.456666666666665 12.731333333333334A6.482 6.482 0 0 0 14.5 8c0 -3.59 -2.91 -6.5 -6.5 -6.5S1.5 4.41 1.5 8a6.482 6.482 0 0 0 2.043333333333333 4.731333333333334A6.477333333333332 6.477333333333332 0 0 0 8 14.5a6.477333333333332 6.477333333333332 0 0 0 4.456666666666666 -1.7686666666666666Zm-8.36 -0.8566666666666666A4.990666666666666 4.990666666666666 0 0 1 8 10a4.990666666666666 4.990666666666666 0 0 1 3.9033333333333333 1.8746666666666665A5.482666666666667 5.482666666666667 0 0 1 8 13.5a5.482666666666667 5.482666666666667 0 0 1 -3.9033333333333333 -1.6253333333333333ZM10.5 6a2.5 2.5 0 1 1 -5 0 2.5 2.5 0 0 1 5 0Z" clip-rule="evenodd" stroke-width="0.6667"></path>
</svg>